<?xml version="1.0" encoding="UTF-8"?>
<svg width="312px" height="74px" viewBox="0 0 312 74" version="1.1" xmlns="http://www.w3.org/2000/svg" xmlns:xlink="http://www.w3.org/1999/xlink">
  <!-- Generator: Sketch 50 (54983) - http://www.bohemiancoding.com/sketch -->
  <title>pinniped-seal</title>
  <desc>Created with Sketch.</desc>
  <defs></defs>
  <g id="Page-1" stroke="none" stroke-width="1" fill="none" fill-rule="evenodd">
    <g id="Landing-Page" transform="translate(-50.000000, -2188.000000)" fill="#6C79C6">
      <g id="pinniped-seal" transform="translate(50.000000, 2188.000000)">
        <path d="M80.0482089,31.2862047 L79.8189632,48.2413223 C84.6331216,47.4367451 86.6963323,45.2518754 86.6963323,39.1041322 C86.6963323,31.6890019 83.6593348,31.1722823 80.0482089,31.2862047 M79.8189632,53.8153846 L79.4172762,63.0685315 C79.3604719,64.0460267 78.9019807,64.9655435 77.010197,65.1954228 C73.8585767,65.5972028 68.0117986,66 66.4648978,66 C64.8601783,66 64.1724414,65.1374444 64.1724414,63.2994278 C64.1724414,63.2994278 64,38.5863954 64,30.194787 C64,28.4137317 64.5163099,27.7810553 66.9801933,27.1493961 C69.6743367,26.5167196 78.0996209,26 82.8569751,26 C93.9753884,26 102,29.2752702 102,38.126637 C102,47.2068659 94.033207,52.8389065 79.8189632,53.8153846" id="Fill-1"></path>
        <path d="M117.180171,56.0981256 C117.180171,58.3427675 116.305171,58.9850397 114.336421,59.3057028 C112.09375,59.6793369 109.742671,60 107.9375,60 C106.242671,60 104.65625,59.4655614 104.65625,56.4187887 C104.65625,50.8606278 104.382329,44.126702 104.382329,41.8281433 C104.382329,39.0490628 105.3125,37.9801857 107.883296,37.5526349 C110.78125,37.0181963 113.242671,36.6975332 115.211421,36.6975332 C117.289546,36.6975332 117.563468,38.0331566 117.563468,40.1709108 C117.563468,41.7742265 117.235343,50.3791601 117.180171,56.0981256 M110.070796,31.9405571 C106.625,31.9405571 104,30.0695492 104,27.558161 C104,23.9230329 108.484375,22 111.930171,22 C115.430171,22 118,23.870062 118,26.3823961 C118,30.0165783 113.515625,31.9405571 110.070796,31.9405571" id="Fill-3"></path>
        <path d="M153.661392,58.2647011 C153.661392,60.1328365 152.758436,60.9570711 151.122327,61.231168 C149.48522,61.5052649 146.212005,62 144.293223,62 C141.640291,62 140.680401,61.1757654 140.680401,58.1558399 L140.680401,48.5449538 C140.680401,45.7437227 139.552705,44.9748907 137.802728,44.9748907 C137.125511,44.9748907 136.279489,45.3043901 135.601274,45.6892921 C135.489403,48.7092176 135.319599,53.5428479 135.20673,57.7165074 C135.09386,60.2416977 134.473577,60.5167666 132.215189,61.0659323 C130.409277,61.5052649 127.983082,61.9445974 125.838562,61.9445974 C122.677217,61.9445974 122.338608,60.7918354 122.282673,56.3975377 C122.225739,49.0931476 122,46.4027215 122,43.4916572 C122,41.1307306 122.791085,39.7573303 124.991541,39.2091366 C127.587539,38.5491657 130.860755,38 132.779536,38 C134.585448,38 135.376533,38.768832 135.376533,41.5700632 C138.085401,39.3724283 141.696226,38.1642637 145.760527,38.1642637 C152.025283,38.1642637 154,41.4048275 154,46.5679572 C154,47.884983 153.661392,55.4644419 153.661392,58.2647011" id="Fill-5"></path>
        <path d="M189.661392,58.2647011 C189.661392,60.1328365 188.758436,60.9570711 187.121328,61.231168 C185.48522,61.5052649 182.212005,62 180.292225,62 C177.640291,62 176.680401,61.1757654 176.680401,58.1558399 L176.680401,48.5449538 C176.680401,45.7437227 175.551706,44.9748907 173.802728,44.9748907 C173.124512,44.9748907 172.27849,45.3043901 171.601274,45.6892921 C171.488404,48.7092176 171.3186,53.5428479 171.205731,57.7165074 C171.09386,60.2416977 170.472579,60.5167666 168.215189,61.0659323 C166.409277,61.5052649 163.982083,61.9445974 161.837563,61.9445974 C158.677217,61.9445974 158.338608,60.7918354 158.281674,56.3975377 C158.225739,49.0931476 158,46.4027215 158,43.4916572 C158,41.1307306 158.790086,39.7573303 160.991541,39.2091366 C163.587539,38.5491657 166.860755,38 168.779536,38 C170.585448,38 171.375535,38.768832 171.375535,41.5700632 C174.084402,39.3724283 177.696226,38.1642637 181.759528,38.1642637 C188.024284,38.1642637 190,41.4048275 190,46.5679572 C190,47.884983 189.661392,55.4644419 189.661392,58.2647011" id="Fill-7"></path>
        <path d="M207.17926,56.0981256 C207.17926,58.3427675 206.304321,58.9850397 204.335707,59.3057028 C202.09319,59.6793369 199.742274,60 197.938196,60 C196.242516,60 194.656205,59.4655614 194.656205,56.4187887 C194.656205,50.8606278 194.382302,44.126702 194.382302,41.8281433 C194.382302,39.0490628 195.312409,37.9801857 197.883028,37.5526349 C200.781749,37.0181963 203.242032,36.6975332 205.210646,36.6975332 C207.288628,36.6975332 207.56253,38.0331566 207.56253,40.1709108 C207.56253,41.7742265 207.234428,50.3791601 207.17926,56.0981256 M200.070377,31.9405571 C196.624819,31.9405571 194,30.0695492 194,27.558161 C194,23.9230329 198.484065,22 201.929623,22 C205.429381,22 208,23.870062 208,26.3823961 C208,30.0165783 203.515935,31.9405571 200.070377,31.9405571" id="Fill-9"></path>
        <path d="M227.564232,44.346568 C226.989925,44.346568 226.300756,44.4588878 225.611588,44.7401844 C225.496726,48.0531228 225.381865,54.7366503 225.151126,59.5107405 C229.631738,59.3417638 231.699244,57.769286 231.699244,51.2547352 C231.699244,46.6486278 230.148106,44.346568 227.564232,44.346568 M225.151126,63.4419349 C224.979342,66.8115302 224.86448,67.7667458 224.86448,69.5628693 C224.86448,71.9225799 223.888666,72.4275222 221.878083,72.9334585 C219.695716,73.4950577 217.685133,74 215.790427,74 C214.009567,74 212.344584,73.4950577 212.344584,70.2934452 C212.344584,66.3612568 212,47.3225468 212,44.2342482 C212,41.3129383 213.090675,40.4720305 215.675566,39.5724778 C218.718885,38.5059363 220.326945,38 222.395468,38 C224.003528,38 224.979342,38.9552156 225.094203,40.8646529 C227.104786,39.5168148 229.516876,38.730576 233.365243,38.730576 C239.912344,38.730576 246,43.1667127 246,49.9625601 C246,59.7343862 237.097731,63.4419349 225.151126,63.4419349" id="Fill-11"></path>
        <path d="M263.014501,41.8995626 C259.744534,41.8995626 259.131415,45.1401264 258.824855,48.4360927 C258.77331,48.8744533 258.77331,49.3691884 258.77331,49.808521 C262.503569,49.3691884 265.466977,47.7761218 265.466977,44.7552244 C265.466977,42.8890329 264.446016,41.8995626 263.014501,41.8995626 M259.437974,54.0920136 C259.84672,56.1244128 261.686077,57.0021059 263.831993,57.0021059 C266.846946,57.0021059 268.839131,55.7395108 270.2191,55.7395108 C271.138779,55.7395108 271.495979,56.1788434 271.495979,57.7165074 C271.495979,58.8148388 271.138779,59.8033371 270.2191,60.2980723 C268.430385,61.3410011 264.240739,62 259.590802,62 C250.751219,62 246,57.6066742 246,51.1809493 C246,41.1861332 255.503343,38 263.168233,38 C271.495979,38 274,40.4717317 274,45.1401264 C274,49.3137858 269.605981,53.0490847 259.437974,54.0920136" id="Fill-13"></path>
        <path d="M298.342961,40.9138404 C297.828192,40.8557209 297.314435,40.8557209 296.857313,40.8557209 C292.800857,40.8557209 292.228442,44.0818625 292.228442,48.9791945 C292.228442,54.2221845 293.657456,56.1227938 296.057349,56.1227938 C296.800678,56.1227938 297.771558,55.8923551 298.457241,55.4314777 C298.457241,50.1313879 298.400607,45.9845112 298.342961,40.9138404 M311.542878,57.6216649 C311.542878,60.0412712 310.570987,60.6744677 308.514947,61.0772256 C306.228323,61.5391226 304.515125,62 302.627978,62 C300.799488,62 299.885243,60.9620063 299.600048,59.6956131 C297.600642,60.6163482 295.999703,61.4228836 292.457003,61.4228836 C284.857848,61.4228836 278,57.967323 278,49.72863 C278,39.9920856 286.857253,36.1327474 295.028823,36.1327474 C296.113983,36.1327474 297.314435,36.1327474 298.286326,36.1888277 C298.22868,32.5018086 298.172046,30.1974218 298.172046,26.2799641 C298.172046,23.2842611 299.142925,22.247287 301.771379,21.4978515 C305.085517,20.5189969 307.428775,20 309.485826,20 C311.486243,20 312,21.7864097 312,24.3222549 C312,28.1815931 311.599512,51.4569202 311.542878,57.6216649" id="Fill-15"></path>
        <g id="Group-20">
          <path d="M32.6017,4.9462 C32.9597,4.9462 33.2467,4.8992 33.3657,4.5412 C33.4607,4.2302 33.4367,3.9212 33.2227,3.6582 C32.7447,3.0372 32.1477,2.7512 31.4327,2.8702 C30.8837,2.9662 30.7647,3.3242 31.0027,3.8732 C31.3607,4.5892 31.9337,4.8992 32.6017,4.9462 M16.3967,67.4992 C12.7457,66.6872 9.2127,65.4942 6.3727,62.8922 C1.0277,58.0242 -0.8343,51.8422 0.3347,44.7312 C1.3137,38.7642 5.3707,34.8982 11.1937,33.9432 C15.9917,33.1562 20.8117,33.4902 25.6087,33.8002 C25.9667,33.8242 26.0627,33.9672 26.1577,34.3012 C26.5877,35.9252 27.2557,37.5002 27.5657,39.1702 C27.6377,39.4802 27.8047,39.7662 27.9477,40.0292 C28.1627,40.4112 28.5687,40.7452 28.9507,40.5782 C29.3087,40.4352 29.2367,39.9102 29.1177,39.5282 C29.0457,39.3132 29.0217,39.0752 28.9267,38.8602 C28.4727,37.7152 28.1387,36.4972 27.7807,35.3032 C26.1097,29.7432 26.0387,24.3262 28.9267,19.1232 C29.4277,18.2162 29.2607,17.3812 28.6397,16.5932 C27.9957,15.8052 27.2317,15.2092 26.4447,14.6122 C24.9887,13.5142 23.8667,12.0832 22.8647,10.5552 C22.5307,10.0302 22.3157,9.3382 22.7217,8.8602 C23.1267,8.4072 23.8187,8.5982 24.3207,8.8602 C25.0597,9.2422 25.7517,9.6962 26.4447,10.1262 C26.8737,10.3872 27.3277,10.6502 27.8517,10.6752 C28.2107,10.6982 28.6637,10.6022 28.7357,10.2202 C28.8077,9.8862 28.3777,9.7672 28.1147,9.6242 C27.9717,9.5522 27.7807,9.4812 27.6137,9.4572 C25.9667,9.2422 24.7267,8.2402 23.5327,7.1422 C22.9597,6.6172 22.6497,5.9492 22.6737,5.1372 C22.6977,4.8512 22.7217,4.5172 22.5307,4.2302 C22.4347,4.0882 22.3877,3.9212 22.1967,3.9442 C22.0057,3.9682 21.9817,4.1592 21.9577,4.3022 C21.8147,4.8032 22.0767,5.2812 22.1487,5.7582 C22.2207,6.2122 22.5307,6.9032 21.9337,7.0472 C21.2887,7.1902 21.1457,6.4742 20.9787,5.9492 C20.9557,5.8782 20.9787,5.7822 20.9557,5.7112 C20.7167,4.5642 20.9077,3.4192 21.1937,2.2982 C21.5277,0.9852 22.3637,0.4832 23.6757,0.6982 C24.7737,0.8662 25.8237,1.3422 26.8977,1.6532 C27.9237,1.9392 28.8547,1.9162 29.6187,1.0082 C30.1197,0.4362 30.8117,0.3412 31.5277,0.5312 C32.5777,0.8182 33.6277,0.9132 34.7017,0.6032 C35.2747,0.4362 35.8717,0.4602 36.4677,0.5312 C39.9287,0.9612 42.5297,2.7752 44.2957,5.8052 C45.8947,8.5502 46.5157,11.6052 46.9447,14.7312 C47.1357,16.2832 47.2317,17.8582 47.4697,19.4092 C47.8287,21.7962 49.2837,23.5862 50.5727,25.4712 C52.4577,28.1922 54.6297,30.6742 56.3727,33.4902 C58.7107,37.2602 59.5937,41.2942 58.8307,45.7092 C58.2577,49.0032 56.8257,51.8672 55.0597,54.6342 C53.8427,56.4722 52.3627,58.1192 51.0977,59.9332 C49.7617,61.8662 49.4267,63.8472 50.9307,65.8762 C51.0017,65.9712 51.0737,66.0912 51.1217,66.2102 C51.3367,66.6162 51.7657,67.0692 51.5507,67.4742 C51.3837,67.7372 50.7877,67.5222 50.3817,67.5222 C46.8497,67.4742 43.3177,67.7852 39.7857,67.3802 C39.2607,67.3072 39.0457,67.1402 38.9027,66.6162 C38.2337,63.9672 37.9717,61.2212 37.5897,58.5012 C37.2557,56.0912 36.8497,53.7042 36.0617,51.3892 C35.8477,50.7452 35.5607,50.1252 35.0127,49.6952 C34.8687,49.5992 34.7257,49.3372 34.4867,49.5042 C34.2957,49.6232 34.2487,49.8382 34.2487,50.0522 C34.2487,50.1962 34.2957,50.3632 34.3437,50.5072 C35.2037,53.2032 35.7757,55.9482 36.1097,58.7632 C36.3247,60.6012 36.6347,62.4152 36.5157,64.2532 C36.4917,64.6592 36.4437,65.0642 35.9907,65.2082 C35.5847,65.3502 35.2507,65.1122 34.9647,64.8492 C34.3917,64.3482 34.3437,63.6562 34.3677,62.9652 C34.4157,60.6262 34.2957,58.3102 33.7237,56.0192 C32.9597,52.9652 31.3367,50.8412 28.0907,50.4112 C26.4447,50.1722 24.8457,50.4342 23.2467,50.8882 C20.8597,51.5802 18.6167,52.6312 16.3257,53.6092 C14.7497,54.2772 13.2947,54.1582 11.9347,53.0602 C11.3847,52.6312 10.8117,52.2012 10.2157,51.8672 C9.2607,51.3422 8.2347,51.1752 7.1847,51.6042 C6.8027,51.7472 6.4447,52.0822 6.4927,52.4642 C6.5397,52.8452 7.0177,52.7022 7.3277,52.7982 C7.4947,52.8452 7.6857,52.8452 7.8527,52.8212 C8.8077,52.7502 9.6427,53.0842 10.4307,53.6332 C10.8837,53.9432 11.3137,54.2532 11.7667,54.5632 C12.7217,55.2082 13.7477,55.3752 14.8457,55.1362 C16.1827,54.8262 17.4947,54.3482 18.7837,53.8712 C21.0267,53.0602 23.2227,52.1292 25.5607,51.6752 C28.7597,51.0552 31.2177,52.3912 32.1247,55.4462 C33.2697,59.3372 32.7927,63.2032 31.8617,67.0692 C31.7667,67.4512 31.5037,67.4742 31.2177,67.4992 C28.7117,67.7372 26.2057,67.9042 23.6997,67.9762 C21.2657,68.0242 18.8307,68.0242 16.3967,67.4992" id="Fill-18"></path>
        </g>
      </g>
    </g>
  </g>
</svg>