<?xml version="1.0" encoding="UTF-8"?>
<svg width="90px" height="102px" viewBox="0 0 90 102" version="1.1" xmlns="http://www.w3.org/2000/svg" xmlns:xlink="http://www.w3.org/1999/xlink">
    <!-- Generator: Sketch 50 (54983) - http://www.bohemiancoding.com/sketch -->
    <title>Group</title>
    <desc>Created with Sketch.</desc>
    <defs>
        <polygon id="path-1" points="0 0.66349129 89.9512301 0.66349129 89.9512301 101.993851 0 101.993851"></polygon>
    </defs>
    <g id="Page-1" stroke="none" stroke-width="1" fill="none" fill-rule="evenodd">
        <g id="Landing-Page" transform="translate(-48.000000, -42.000000)">
            <g id="Group" transform="translate(48.000000, 42.000000)">
                <g id="Group-20">
                    <mask id="mask-2" fill="white">
                        <use xlink:href="#path-1"></use>
                    </mask>
                    <g id="Clip-19"></g>
                    <path d="M49.6217051,7.4193 C50.1666022,7.4193 50.6034331,7.3488 50.7845581,6.8118 C50.9291537,6.3453 50.8926243,5.8818 50.5669037,5.4873 C49.8393596,4.5558 48.9306904,4.1268 47.8424184,4.3053 C47.0068081,4.4493 46.8256831,4.9863 47.1879331,5.8098 C47.7328301,6.8838 48.6049699,7.3488 49.6217051,7.4193 M24.9567419,101.2488 C19.3997051,100.0308 14.0222713,98.2413 9.69962426,94.3383 C1.56421985,87.0363 -1.26985368,77.7633 0.509433088,67.0968 C1.99952868,58.1463 8.17452132,52.3473 17.0374699,50.9148 C24.3403081,49.7343 31.6766316,50.2353 38.9779478,50.7003 C39.5228449,50.7363 39.6689625,50.9508 39.8135581,51.4518 C40.4680434,53.8878 41.4847787,56.2503 41.9566169,58.7553 C42.0662051,59.2203 42.320389,59.6493 42.5380434,60.0438 C42.865286,60.6168 43.4832419,61.1178 44.0646684,60.8673 C44.6095654,60.6528 44.4999772,59.8653 44.3188522,59.2923 C44.209264,58.9698 44.1727346,58.6128 44.028139,58.2903 C43.3371243,56.5728 42.8287566,54.7458 42.2838596,52.9548 C39.7404993,44.6148 39.6324331,36.4893 44.028139,28.6848 C44.7906904,27.3243 44.5365066,26.0718 43.5913081,24.8898 C42.6111022,23.7078 41.4482493,22.8138 40.250389,21.9183 C38.0342713,20.2713 36.3265213,18.1248 34.8014184,15.8328 C34.2930507,15.0453 33.9658081,14.0073 34.583764,13.2903 C35.2001978,12.6108 36.2534625,12.8973 37.017536,13.2903 C38.1423375,13.8633 39.1956022,14.5443 40.250389,15.1893 C40.9033522,15.5808 41.5943669,15.9753 42.3919257,16.0128 C42.9383449,16.0473 43.6278375,15.9033 43.7374257,15.3303 C43.847014,14.8293 43.1925287,14.6508 42.7922272,14.4363 C42.5745728,14.3283 42.2838596,14.2218 42.0296757,14.1858 C39.5228449,13.8633 37.6354919,12.3603 35.8181537,10.7133 C34.946014,9.9258 34.4741757,8.9238 34.5107051,7.7058 C34.5472346,7.2768 34.583764,6.7758 34.2930507,6.3453 C34.1469331,6.1323 34.0753963,5.8818 33.7846831,5.9163 C33.4939699,5.9523 33.4574404,6.2388 33.420911,6.4533 C33.2032566,7.2048 33.602036,7.9218 33.7116243,8.6373 C33.8212125,9.3183 34.2930507,10.3548 33.3843816,10.5708 C32.4026537,10.7853 32.1849993,9.7113 31.9308154,8.9238 C31.8958081,8.8173 31.9308154,8.6733 31.8958081,8.5668 C31.532036,6.8463 31.8227493,5.1288 32.2580581,3.4473 C32.7664257,1.4778 34.0388669,0.7248 36.0358081,1.0473 C37.7070287,1.2993 39.3051904,2.0133 40.9398816,2.4798 C42.501514,2.9088 43.9185507,2.8743 45.0814037,1.5123 C45.8439551,0.6543 46.8972199,0.5118 47.987014,0.7968 C49.5851757,1.2273 51.1833375,1.3698 52.8180287,0.9048 C53.6901684,0.6543 54.5988375,0.6903 55.5059846,0.7968 C60.7738301,1.4418 64.7327051,4.1628 67.420661,8.7078 C69.8544331,12.8253 70.7996316,17.4078 71.4525949,22.0968 C71.7433081,24.4248 71.8894257,26.7873 72.2516757,29.1138 C72.7980949,32.6943 75.0126904,35.3793 76.9746243,38.2068 C79.8437051,42.2883 83.1496169,46.0113 85.8025654,50.2353 C89.361139,55.8903 90.7051169,61.9413 89.543786,68.5638 C88.6716463,73.5048 86.4920581,77.8008 83.8041022,81.9513 C81.9517566,84.7083 79.6991096,87.1788 77.7737051,89.8998 C75.7402346,92.7993 75.2303449,95.7708 77.5195213,98.8143 C77.6275875,98.9568 77.7371757,99.1368 77.8102346,99.3153 C78.1374772,99.9243 78.7904404,100.6038 78.4631978,101.2113 C78.209014,101.6058 77.3018669,101.2833 76.683911,101.2833 C71.3079993,101.2113 65.9320875,101.6778 60.5561757,101.0703 C59.7570949,100.9608 59.4298522,100.7103 59.2121978,99.9243 C58.1939404,95.9508 57.795161,91.8318 57.2137346,87.7518 C56.7053669,84.1368 56.087411,80.5563 54.8880287,77.0838 C54.5623081,76.1178 54.1254772,75.1878 53.291389,74.5428 C53.0722125,74.3988 52.8545581,74.0058 52.490786,74.2563 C52.2000728,74.4348 52.128536,74.7573 52.128536,75.0783 C52.128536,75.2943 52.2000728,75.5448 52.2731316,75.7608 C53.5821022,79.8048 54.4527199,83.9223 54.9610875,88.1448 C55.2883301,90.9018 55.7601684,93.6228 55.5790434,96.3798 C55.542514,96.9888 55.4694551,97.5963 54.7799625,97.8123 C54.1620066,98.0253 53.653639,97.6683 53.2183301,97.2738 C52.3461904,96.5223 52.2731316,95.4843 52.309661,94.4478 C52.3827199,90.9393 52.2000728,87.4653 51.3294551,84.0288 C50.1666022,79.4478 47.6963007,76.2618 42.7556978,75.6168 C40.250389,75.2583 37.8166169,75.6513 35.3828449,76.3323 C31.7496904,77.3703 28.3357125,78.9468 24.8486757,80.4138 C22.449911,81.4158 20.2353154,81.2373 18.1653154,79.5903 C17.3281831,78.9468 16.4560434,78.3018 15.5488963,77.8008 C14.0953301,77.0133 12.5336978,76.7628 10.935536,77.4063 C10.3541096,77.6208 9.8092125,78.1233 9.88227132,78.6963 C9.95380809,79.2678 10.6813522,79.0533 11.1531904,79.1973 C11.4073743,79.2678 11.6980875,79.2678 11.9522713,79.2318 C13.4058375,79.1253 14.6767566,79.6263 15.876139,80.4498 C16.5656316,80.9148 17.2201169,81.3798 17.9096096,81.8448 C19.3631757,82.8123 20.9248081,83.0628 22.5960287,82.7043 C24.6310213,82.2393 26.6279625,81.5223 28.5898963,80.8068 C32.0038743,79.5903 35.3463154,78.1938 38.904889,77.5128 C43.7739551,76.5828 47.5151757,78.5868 48.8956831,83.1693 C50.6384404,89.0058 49.9124184,94.8048 48.4953816,100.6038 C48.350786,101.1768 47.9504846,101.2113 47.5151757,101.2488 C43.7008963,101.6058 39.8866169,101.8563 36.0723375,101.9643 C32.3676463,102.0363 28.6614331,102.0363 24.9567419,101.2488" id="Fill-18" fill="#FEFEFE" mask="url(#mask-2)"></path>
                </g>
            </g>
        </g>
    </g>
</svg>